<svg width="360" height="340" viewBox="0 0 360 340" fill="none" xmlns="http://www.w3.org/2000/svg">
<path d="M323.161 287.183L299.294 288.557L282.626 276.139L306.937 274.897L323.161 287.183Z" fill="#FFB2B2"/>
<path d="M349.096 297.541C346.8 290.1 329.048 290.293 322.578 285.985C314.703 280.747 313.143 279.393 313.143 279.393L288.699 280.684L289.011 305.194L349.33 305.467C349.445 302.822 349.366 300.172 349.096 297.541V297.541Z" fill="#3344A8"/>
<path d="M326.982 314.476L303.115 315.85L286.445 303.432L310.756 302.19L326.982 314.476Z" fill="#FFB2B2"/>
<path d="M359.712 329.851C357.416 322.411 339.668 322.603 333.195 318.295C325.319 313.057 323.76 311.703 323.76 311.703L299.319 312.992L299.631 337.503L359.951 337.775C360.063 335.131 359.983 332.482 359.712 329.851Z" fill="#3344A8"/>
<path d="M257.56 186.836C268.164 217.602 281.963 269.877 260.364 292.606C234.466 319.861 161.263 335.396 140.363 336.471C129.955 337.007 64.5997 346.23 29.2824 325.859C-0.808628 308.501 -2.85834 268.43 2.04507 196.497C8.86547 96.3833 -2.24101 43.8385 83.6444 35.5595C144.375 29.7036 118.436 70.4709 173.592 110.724C220.511 144.969 243.972 147.407 257.56 186.836Z" fill="#CB68E0"/>
<path d="M123.224 10.7157C113.523 -1.45923 97.922 -1.53781 94.4274 2.08047C92.6042 3.84855 91.6096 6.40862 91.7175 9.05586C91.7175 9.05586 91.0325 2.76072 80.0594 10.8953C71.5177 17.2294 74.9396 61.7331 92.6294 69.6574C97.698 71.9249 142.449 34.8418 123.224 10.7157Z" fill="#D4145A"/>
<path d="M107.423 88.5226H84.4574V39.9606H107.423V88.5226Z" fill="#FF8888"/>
<path d="M84.4242 45.4617C87.1977 53.1548 96.1964 69.751 102.28 70.0136C109.704 70.3339 122.397 48.735 121.706 34.6353C121.654 33.5659 115.508 36.5062 110.368 33.6303C102.272 29.102 93.8163 18.4709 93.8163 18.4709L88.4283 34.5881C88.4283 34.5881 86.9302 29.0144 84.6095 27.7579C80.8523 25.7254 79.3556 32.9044 79.7946 35.6665C81.4592 46.0911 84.3579 45.2776 84.4242 45.4617Z" fill="#FFB2B2"/>
<path d="M95.3309 96.6797C87.222 80.2975 83.8864 70.2965 83.8864 70.2965L107.492 71.9055C107.492 71.9055 129.927 108.579 121.908 114.532C114.135 120.298 103.44 113.061 95.3309 96.6797Z" fill="#FF928F"/>
<path d="M103.666 186.727C103.666 186.727 181.733 172.359 206.781 178.689C232.245 185.12 309.038 276.286 309.038 276.286L284.753 277.839C284.753 277.839 224.906 247.22 207.758 232.732C198.685 225.067 188.553 211.039 188.553 211.039C188.553 211.039 126.73 230.201 109.791 211.295C104.834 205.764 103.666 186.727 103.666 186.727Z" fill="#D4145A"/>
<path d="M178.62 158.953C168.517 154.302 135.646 134.257 135.646 134.257L119.996 99.2256L110.712 112.721L130.077 156.656L177.028 169.575C177.353 166.008 178.224 162.514 178.62 158.953Z" fill="#2DC3CE"/>
<path d="M109.808 200.536C109.808 200.536 170.095 190.771 195.144 197.098C220.608 203.534 317.521 307.263 317.521 307.263L295.909 310.345C294.687 310.517 293.445 310.287 292.345 309.685C281.862 303.954 225.7 273.034 210.172 259.915C201.1 252.251 190.969 238.223 190.969 238.223C190.969 238.223 129.146 257.385 112.207 238.479C107.25 232.949 109.808 200.536 109.808 200.536Z" fill="#E82E7A"/>
<path d="M151.244 162.254L110.152 210.099L156.937 214.318L203.6 168.584C204.161 168.034 204.368 167.177 204.126 166.401C203.884 165.625 203.239 165.079 202.485 165.011L151.244 162.254Z" fill="#909090"/>
<path d="M202.859 105.936L154.923 152.843L155.279 212.217L203.215 165.31L202.859 105.936Z" fill="#B7B7B7"/>
<path d="M176.525 162.282C177.606 165.209 180.648 166.268 183.351 165.098C186.054 163.927 187.646 158.785 186.565 155.859C185.484 152.934 182.514 152.614 179.812 153.784C177.109 154.954 175.443 159.356 176.525 162.282Z" fill="white"/>
<path d="M107.449 71.984C107.449 71.984 108.278 70.0136 119.126 86.535C126.196 97.3023 126.081 103.853 129.618 127.05C131.192 137.372 138.035 183.074 138.035 183.074L114.619 217.296C114.619 217.296 85.0257 194.53 81.7952 191.671C75.9544 186.503 60.9648 157.845 56.8613 143.839C55.0369 137.609 56.3082 115.307 64.3343 88.7456C68.7282 74.2037 76.4977 70.0997 84.2818 70.2875C84.913 70.3033 97.3965 82.092 101.694 81.8339C110.141 81.3265 107.333 71.8508 107.449 71.984Z" fill="#48DAE5"/>
<path d="M194.319 280.09C194.485 286.555 157.949 286.334 143.668 284.932C119.259 282.537 28.7736 282.033 23.8308 233.807C22.0106 216.043 59.3251 86.2948 58.434 116.028C57.8464 135.626 58.3165 144.938 66.917 156.982C69.2508 160.25 74.1756 168.806 80.0296 171.507C106.447 183.686 150.809 206.074 162.633 214.57C181.953 228.449 194.142 273.208 194.319 280.09Z" fill="#C058D6"/>
<path d="M116.877 183.789L124.982 184.445C124.982 184.445 138.498 187.647 144.246 185.532C147.288 184.41 156.063 183.221 155.268 178.858C155.064 177.735 142.755 177.374 142.709 176.569C142.566 173.895 147.696 174.773 147.195 171.848C146.969 170.531 146.095 171.424 145.002 171.504C137.398 172.066 131.729 170.488 127.4 175.471C127.371 175.505 123.609 174.634 117.774 173.259C117.732 176.789 117.432 180.31 116.877 183.789Z" fill="#FFB2B2"/>
<path d="M123.867 173.14L82.9891 158.472C82.9891 158.472 87.1024 95.3813 78.8033 92.2262C72.5656 89.8539 65.1569 92.5465 63.3395 99.4276C60.6904 109.456 59.3161 168.448 67.7438 173.508C69.7423 174.705 111.465 186.828 122.658 185.383C124.251 182.307 123.867 173.14 123.867 173.14Z" fill="#2DC3CE"/>
</svg>
